<svg width="26" height="20" viewBox="0 0 26 20" fill="none" xmlns="http://www.w3.org/2000/svg">
<path d="M13.2402 0C12.9145 0 12.6321 0.10425 12.3936 0.312749L6.13114 5.78951H1.20421C0.877722 5.78951 0.596031 5.89376 0.357618 6.10226C0.119206 6.31076 0 6.55777 0 6.84263V13.1574C0 13.4422 0.119206 13.6892 0.357618 13.8977C0.596031 14.1062 0.878481 14.2105 1.20421 14.2105H6.13114L12.3936 19.6873C12.6321 19.8958 12.9137 20 13.2402 20C13.5667 20 13.8484 19.8958 14.0868 19.6873C14.3252 19.4788 14.4444 19.2324 14.4444 18.9469V1.05312C14.4444 0.76826 14.3252 0.521248 14.0876 0.312749C13.8499 0.10425 13.5675 0 13.241 0H13.2402Z" fill="#B3B3B3"/>
<path d="M20.2511 12.3433C20.7581 11.6227 21.0116 10.844 21.0116 10.0067C21.0116 9.16933 20.7581 8.388 20.2511 7.66133C19.7441 6.93466 19.0739 6.42266 18.2383 6.12533C18.1191 6.07066 17.9696 6.04266 17.7912 6.04266C17.4814 6.04266 17.2127 6.14466 16.9859 6.348C16.7592 6.55266 16.6458 6.802 16.6458 7.09933C16.6458 7.33066 16.7173 7.526 16.861 7.68533C17.0047 7.84466 17.1766 7.98266 17.3796 8.098C17.5818 8.21333 17.7847 8.34 17.9877 8.478C18.1906 8.616 18.3632 8.81066 18.5062 9.064C18.6492 9.31733 18.7207 9.63133 18.7207 10.0053C18.7207 10.3793 18.6492 10.6933 18.5062 10.9467C18.3632 11.2 18.1906 11.3953 17.9877 11.5327C17.7847 11.67 17.5818 11.7973 17.3796 11.9127C17.1766 12.028 17.004 12.166 16.861 12.3253C16.718 12.4847 16.6458 12.6807 16.6458 12.9113C16.6458 13.2087 16.7599 13.4587 16.9859 13.6627C17.2127 13.8653 17.4807 13.9687 17.7912 13.9687C17.9696 13.9687 18.1191 13.9413 18.2383 13.886C19.0732 13.5773 19.7441 13.0627 20.2511 12.3413V12.3433Z" fill="#B3B3B3"/>
<path d="M24.4649 14.7472C25.4883 13.2976 26 11.7142 26 9.99932C26 8.28509 25.4883 6.70313 24.4649 5.25142C23.4415 3.80175 22.0871 2.74485 20.4026 2.08412C20.2466 2.02849 20.0898 2 19.9331 2C19.6204 2 19.3493 2.1065 19.1204 2.31951C18.8915 2.53252 18.7778 2.78419 18.7778 3.07589C18.7778 3.51276 19.0125 3.84313 19.4819 4.06767C20.1555 4.39261 20.6132 4.63885 20.8538 4.80709C21.7445 5.41219 22.4399 6.17061 22.9392 7.08369C23.4385 7.99678 23.6886 8.9682 23.6886 10C23.6886 11.0304 23.4385 12.0025 22.9392 12.9163C22.4399 13.8294 21.7445 14.5878 20.8538 15.1929C20.6132 15.3611 20.1555 15.6074 19.4819 15.9323C19.0125 16.1569 18.7778 16.4866 18.7778 16.9241C18.7778 17.2151 18.8922 17.4675 19.1204 17.6805C19.3485 17.8935 19.6255 18 19.9506 18C20.095 18 20.2458 17.9715 20.4018 17.9159C22.0864 17.2545 23.4415 16.1989 24.4641 14.7479L24.4649 14.7472Z" fill="#B3B3B3"/>
</svg>
