<svg width="29" height="16" viewBox="0 0 29 16" fill="none" xmlns="http://www.w3.org/2000/svg">
<path d="M29 16H0L14.5 0L29 16ZM7.87587 8.08055L9.85065 10.2586L11.8255 8.08055L9.85065 5.89609L7.87587 8.08055ZM9.85065 15.3878L11.8255 13.2098L9.85065 11.0254L7.87587 13.2098L9.85065 15.3878ZM19.1804 15.3878L21.1552 13.2098L19.1804 11.0254L17.1745 13.2098L19.1804 15.3878ZM16.848 3.32501C16.8362 3.34623 16.8204 3.36579 16.8014 3.383C16.1871 4.07249 15.5651 4.76198 14.9354 5.44503C14.881 5.50302 14.9354 5.54169 14.9354 5.59324L16.7547 7.60369L16.8402 7.68745L18.815 5.51591L16.848 3.32501ZM5.20134 15.3878L5.27909 15.3041L7.09837 13.3001C7.12737 13.2749 7.14359 13.2414 7.14359 13.2066C7.14359 13.1718 7.12737 13.1383 7.09837 13.1132C6.54637 12.5204 6.00992 11.9146 5.46568 11.3153L5.20134 11.0254L3.22654 13.2098L5.20134 15.3878ZM10.2005 5.50946L12.1753 7.68745L12.2375 7.62948L14.0957 5.58034C14.1579 5.50946 14.0957 5.4708 14.0957 5.41925L12.2764 3.42167L12.1986 3.3379L10.2005 5.50946ZM10.2005 10.6645L12.1753 12.8425L12.2764 12.7394C12.8673 12.0951 13.4659 11.4506 14.0646 10.7612C14.0813 10.7485 14.0947 10.733 14.1039 10.7159C14.113 10.6986 14.1177 10.6801 14.1177 10.6613C14.1177 10.6425 14.113 10.6239 14.1039 10.6067C14.0947 10.5895 14.0813 10.5741 14.0646 10.5614C13.5048 9.94923 12.9451 9.33711 12.393 8.71846L12.1753 8.48652L10.2005 10.6645ZM19.5303 10.6645L21.5051 12.8425L23.4799 10.6645L21.5051 8.48652L19.5303 10.6645ZM16.848 8.48006V8.52517L14.9742 10.5937C14.912 10.6516 14.9354 10.6903 14.9742 10.7418L16.7158 12.675C16.7625 12.733 16.8169 12.791 16.8791 12.8554L18.8539 10.6774L16.848 8.48006ZM7.53379 12.8297C7.54314 12.8108 7.55628 12.7934 7.57267 12.7781L9.44637 10.7096C9.50081 10.6452 9.44637 10.613 9.44637 10.5614L7.60374 8.55095C7.57959 8.52209 7.55083 8.49606 7.51822 8.4736L5.5512 10.6452L7.53379 12.8297ZM19.1494 10.2521L21.1241 8.07409L19.1494 5.90254L17.1745 8.08055L19.1494 10.2521ZM14.4844 5.09706L16.4593 2.91905L14.5156 0.786148H14.4767L12.5796 2.89972C12.5679 2.91515 12.5617 2.93302 12.5617 2.95127C12.5617 2.96951 12.5679 2.98738 12.5796 3.00282L14.4844 5.09706ZM14.4844 10.2521L16.4593 8.07409L14.5 5.89609L12.5252 8.08055L14.4844 10.2521ZM14.4844 15.4071L16.4593 13.2292L14.4844 11.0447L12.5252 13.2098L14.4844 15.4071ZM23.8142 15.4071L25.789 13.2292L23.822 11.0641H23.7831L21.8783 13.1454C21.8161 13.2162 21.8783 13.2485 21.8783 13.2936L23.4332 15.0399L23.8142 15.4071ZM1.11957 15.5296H4.66488L2.90778 13.5964L1.11957 15.5296ZM24.3662 15.5296H27.8804L26.1233 13.5964L24.3662 15.5296ZM13.9402 15.5296L12.1753 13.5964L10.4105 15.5296H13.9402ZM19.7169 15.5296H23.2311L21.474 13.5964L19.7169 15.5296ZM18.5818 15.5296L16.8247 13.5964L15.0676 15.5296H18.5818ZM9.25201 15.5296L7.4949 13.5964L5.7378 15.5296H9.25201Z" fill="white"/>
</svg>
